<svg width="32" height="32" viewBox="0 0 32 32" fill="none" xmlns="http://www.w3.org/2000/svg">
<path d="M15.5547 29.9141C19.7969 29.9141 22.3516 28.8594 22.3516 27.0547C22.3516 25.4023 20.1484 24.3711 16.4453 24.2188V19.1914C21.0977 18.8633 24.1328 15.8867 24.1328 11.5273C24.1328 9.11328 23.1133 5.9375 21.6367 3.67578C20.9453 2.59766 18.707 2 15.5664 2C12.4023 2 10.1758 2.59766 9.47266 3.67578C7.99609 5.9375 7 9.11328 7 11.5273C7 15.8984 10.0352 18.8633 14.6875 19.1914V24.2188C10.9727 24.3594 8.76953 25.4023 8.76953 27.0547C8.76953 28.8594 11.3125 29.9141 15.5547 29.9141ZM15.5664 4.89453C12.8945 4.89453 11.1016 4.58984 11.1016 4.23828C11.1016 3.89844 12.9062 3.60547 15.5664 3.60547C18.2266 3.60547 20.0312 3.89844 20.0312 4.23828C20.0312 4.58984 18.2266 4.89453 15.5664 4.89453Z" fill="#F6C844"/>
</svg>
