<svg width="32" height="32" viewBox="0 0 32 32" fill="none" xmlns="http://www.w3.org/2000/svg">
<path d="M23.1016 15.9565L24.7389 14.1786C27.0491 11.8181 27.009 8.84486 24.8895 6.70535C22.7701 4.56585 19.7768 4.54576 17.4163 6.85602L15.6384 8.4933C16.6128 8.17187 17.5871 8.47321 18.5715 9.45759L22.2378 13.1239C23.2322 14.1083 23.423 14.9821 23.1016 15.9565ZM14.4632 20.6574C15.4878 21.692 16.4721 21.7121 17.5268 20.6574L21.0726 17.1116C22.1273 16.0569 22.1072 15.0826 21.0826 14.058L17.5369 10.5123C16.5123 9.48772 15.538 9.46763 14.4833 10.5223L10.9275 14.0681C9.88285 15.1228 9.90294 16.1071 10.9275 17.1317L14.4632 20.6574ZM15.327 14.1283C14.9353 13.7366 14.9353 13.1239 15.307 12.7522C15.6987 12.3605 16.3014 12.3605 16.6931 12.7522C17.0648 13.1239 17.0849 13.7266 16.673 14.1283C16.3114 14.49 15.6887 14.5 15.327 14.1283ZM13.1574 16.2879C12.7657 15.8962 12.7657 15.2935 13.1574 14.9018C13.5391 14.51 14.1418 14.5201 14.5335 14.9219C14.8951 15.2835 14.9152 15.8962 14.5335 16.2679C14.1317 16.6797 13.5291 16.6596 13.1574 16.2879ZM18.8427 16.2879C18.471 16.6596 17.8583 16.6596 17.4666 16.2679C17.0949 15.9062 17.0949 15.2835 17.4666 14.9219C17.8683 14.51 18.471 14.5201 18.8427 14.9018C19.2344 15.2935 19.2344 15.8962 18.8427 16.2879ZM7.11053 24.4844C9.2199 26.6339 12.2233 26.654 14.5837 24.3237L16.3416 22.6864C15.3773 23.0078 14.4331 22.7366 13.4487 21.7522L9.7824 18.0859C8.78798 17.0915 8.58709 16.2176 8.90852 15.2433L7.2612 17.0112C4.94089 19.3616 4.99111 22.3348 7.11053 24.4844ZM15.307 18.4375C14.9353 18.0658 14.9152 17.4632 15.327 17.0614C15.6987 16.6797 16.3114 16.6897 16.673 17.0614C17.0648 17.4531 17.0849 18.0658 16.6931 18.4375C16.2913 18.8292 15.6987 18.8292 15.307 18.4375Z" fill="#F6C844"/>
</svg>
