<svg width="1000" height="1000" viewBox="0 0 1000 1000" fill="none" xmlns="http://www.w3.org/2000/svg">
<path d="M499.428 827C598.819 827 658.673 802.289 658.673 760.007C658.673 721.293 607.054 697.133 520.294 693.565V575.778C629.295 568.091 700.405 498.352 700.405 396.216C700.405 339.657 676.519 265.252 641.924 212.262C625.725 187.002 573.284 173 499.703 173C425.572 173 373.405 187.002 356.932 212.262C322.338 265.252 299 339.657 299 396.216C299 498.626 370.111 568.091 479.111 575.778V693.565C392.076 696.859 340.458 721.293 340.458 760.007C340.458 802.289 400.038 827 499.428 827ZM499.703 240.816C437.103 240.816 395.096 233.677 395.096 225.441C395.096 217.479 437.378 210.615 499.703 210.615C562.028 210.615 604.308 217.479 604.308 225.441C604.308 233.677 562.028 240.816 499.703 240.816Z" fill="#F6C844"/>
</svg>
