<svg width="1000" height="1000" viewBox="0 0 1000 1000" fill="none" xmlns="http://www.w3.org/2000/svg">
<path d="M721.924 498.64L773.089 443.08C845.285 369.315 844.029 276.402 777.797 209.542C711.565 142.683 618.025 142.055 544.259 214.251L488.7 265.416C519.148 255.371 549.596 264.788 580.357 295.55L694.929 410.121C726.005 440.883 731.969 468.192 721.924 498.64ZM451.974 645.543C483.991 677.874 514.753 678.502 547.712 645.543L658.517 534.738C691.476 501.779 690.848 471.331 658.831 439.314L548.026 328.509C516.009 296.491 485.561 295.864 452.602 328.823L341.483 439.628C308.838 472.587 309.466 503.348 341.483 535.366L451.974 645.543ZM478.969 441.511C466.727 429.269 466.727 410.121 478.341 398.507C490.583 386.265 509.417 386.265 521.659 398.507C533.273 410.121 533.901 428.955 521.031 441.511C509.731 452.811 490.269 453.125 478.969 441.511ZM411.168 508.998C398.926 496.756 398.926 477.923 411.168 465.681C423.096 453.439 441.929 453.753 454.171 466.309C465.472 477.609 466.099 496.756 454.171 508.371C441.616 521.24 422.782 520.612 411.168 508.998ZM588.832 508.998C577.218 520.612 558.071 520.612 545.829 508.371C534.215 497.07 534.215 477.609 545.829 466.309C558.385 453.439 577.218 453.753 588.832 465.681C601.074 477.923 601.074 496.756 588.832 508.998ZM222.203 765.137C288.121 832.31 381.976 832.938 455.741 760.114L510.673 708.95C480.539 718.994 451.032 710.519 420.271 679.757L305.699 565.186C274.623 534.11 268.345 506.801 278.39 476.353L226.911 531.599C154.402 605.05 155.971 697.963 222.203 765.137ZM478.341 576.172C466.727 564.558 466.099 545.724 478.969 533.168C490.583 521.24 509.731 521.554 521.031 533.168C533.273 545.41 533.901 564.558 521.659 576.172C509.103 588.414 490.583 588.414 478.341 576.172Z" fill="#F6C844"/>
</svg>
