<svg viewBox="0 0 28 28" fill="none" xmlns="http://www.w3.org/2000/svg">
<path fill-rule="evenodd" clip-rule="evenodd" d="M17.0821 5.86722H5.71484C4.54297 5.86722 3.88672 6.50003 3.88672 7.71878V21.0196C3.88672 22.2383 4.54297 22.8594 5.71484 22.8594H19.0625C20.2344 22.8594 20.8789 22.2383 20.8789 21.0196V9.75544L22.7656 7.86531V21.1133C22.7656 23.5391 21.5352 24.7461 19.0859 24.7461H5.67969C3.24219 24.7461 2 23.5391 2 21.1133V7.61331C2 5.19925 3.24219 3.9805 5.67969 3.9805H18.9688L17.0821 5.86722Z" fill="currentColor" fill-opacity="0.85" />
<path d="M9.94531 17.1524L12.2305 16.1563L23.1758 5.22269L21.5703 3.64066L10.6367 14.5743L9.58203 16.7774C9.48828 16.9766 9.72266 17.2461 9.94531 17.1524ZM24.043 4.36722L24.8867 3.50003C25.2852 3.07816 25.2852 2.51566 24.8867 2.12894L24.6172 1.84769C24.2539 1.48441 23.6797 1.53128 23.293 1.90628L22.4375 2.75003L24.043 4.36722Z" fill="currentColor" fill-opacity="0.85"/>
</svg>
