<svg viewBox="0 0 28 28" fill="none" xmlns="http://www.w3.org/2000/svg">
<path d="M2.35009 17.6641C2.68993 17.5586 2.854 17.207 2.76025 16.8086C2.46728 15.625 2.2915 14.3711 2.35009 12.7305C2.36181 12.2969 2.12743 12.0625 1.77587 12.0391C1.31884 12.0039 1.07275 12.2852 1.03759 12.6484C0.932121 13.9727 1.03759 15.5547 1.49462 17.1836C1.61181 17.582 1.98681 17.7812 2.35009 17.6641ZM1.83447 10.6797C2.17431 10.8086 2.6079 10.6563 2.77196 10.2109C4.65868 4.9375 9.1704 2.3125 13.7524 2.3125C15.8384 2.3125 17.479 2.73438 18.8735 3.53125C19.272 3.76562 19.7173 3.76562 19.8931 3.37891C20.0806 2.96875 19.8696 2.71094 19.5767 2.52344C17.7954 1.41016 15.9907 1 13.7524 1C8.45556 1 3.65087 3.82422 1.49462 9.56641C1.27197 10.1523 1.49462 10.5625 1.83447 10.6797ZM26.2095 14.9336C26.5845 14.9336 26.854 14.6289 26.8188 14.2188C26.2915 9.44922 24.7212 6.4375 22.0142 4.07031C21.6743 3.76562 21.2642 3.85938 21.0649 4.09375C20.8423 4.33984 20.8188 4.72656 21.1704 5.04297C23.479 7.19922 25.1548 9.98828 25.5532 14.2422C25.6001 14.6289 25.8345 14.9336 26.2095 14.9336Z" fill="currentColor" fill-opacity="0.85"/>
<path d="M3.70946 21.0625C3.93212 21.3672 4.37743 21.4492 4.70556 21.168C5.54931 20.4531 5.97118 19.3047 5.97118 18.1094C5.97118 16.4922 5.26806 15.6719 5.26806 13.6562C5.26806 9.0625 9.08837 5.24219 13.6821 5.24219C19.2251 5.24219 22.7993 9.77734 22.811 16.4688C22.811 19.082 22.3774 20.9336 21.9438 22C21.7915 22.3633 21.9321 22.75 22.2368 22.9141C22.5649 23.0547 23.022 22.9375 23.1626 22.5508C23.6196 21.3086 24.1235 19.2695 24.1235 16.457C24.1235 8.99219 20.0102 3.92969 13.6821 3.92969C8.36181 3.92969 3.95556 8.34766 3.95556 13.6562C3.95556 15.5781 4.68212 16.8789 4.69384 18.0977C4.69384 18.8945 4.40087 19.6562 3.85009 20.1367C3.56884 20.3711 3.52196 20.793 3.70946 21.0625Z" fill="currentColor" fill-opacity="0.85"/>
<path d="M8.9829 16.8906C8.68993 16.0938 8.20946 15.0859 8.20946 13.7266C8.20946 10.6094 10.6353 8.18359 13.7524 8.18359C14.9477 8.18359 15.3227 8.3125 16.3657 8.81641C16.729 8.98047 17.0571 8.875 17.186 8.61719C17.3618 8.28906 17.2681 7.89062 16.8696 7.65625C16.0962 7.19922 14.9126 6.85938 13.7524 6.85938C9.90868 6.85938 6.88525 9.88281 6.88525 13.7266C6.88525 15.2031 7.28368 16.3984 7.69384 17.3945C7.8579 17.7812 8.20946 17.9688 8.63134 17.793C8.9829 17.6523 9.11181 17.2773 8.9829 16.8906Z" fill="currentColor" fill-opacity="0.85"/>
<path d="M6.47509 23.2422C7.34228 22.7969 8.52587 21.2734 8.854 20.0664C8.94775 19.7383 8.7954 19.3398 8.43212 19.2227C8.104 19.1055 7.75243 19.3047 7.62353 19.6797C7.30712 20.7109 6.75634 21.4844 5.88915 22.0703C5.46728 22.3633 5.40868 22.7266 5.53759 22.9961C5.67821 23.2891 6.05321 23.4531 6.47509 23.2422ZM18.2056 10.3867C19.3423 12.0391 19.9048 14.3242 19.9048 17.0898C19.9048 20.043 19.0845 22.832 17.8071 24.4258C17.5962 24.707 17.5727 25.1055 17.8306 25.3633C18.1118 25.6211 18.5923 25.6094 18.8267 25.293C20.2563 23.3594 21.1938 20.2891 21.1938 17.043C21.1938 13.4922 20.4321 11.3828 19.3657 9.68359C19.1196 9.30859 18.7095 9.19141 18.3813 9.36719C18.0415 9.55469 17.936 9.98828 18.2056 10.3867Z" fill="currentColor" fill-opacity="0.85"/>
<path d="M8.93603 24.7891C10.8579 23.2422 11.9126 20.7812 11.9009 18.0508C11.8892 15.9883 11.1509 14.7109 11.1509 13.5859C11.1509 12.1094 12.1938 11.125 13.7173 11.125C16.061 11.125 16.8227 13.7969 16.8931 16.9609C16.9985 20.6172 15.6743 23.7109 13.9399 25.2344C13.6587 25.4688 13.6001 25.832 13.7876 26.125C14.0102 26.4414 14.4673 26.5 14.772 26.2188C16.6001 24.5547 18.147 20.8984 18.1235 16.8672C18.1118 12.9297 16.9985 9.8125 13.7173 9.8125C11.5376 9.8125 9.86181 11.2656 9.86181 13.4688C9.86181 14.793 10.5649 16.4219 10.5766 18.0508C10.5884 20.3711 9.72118 22.457 8.11571 23.7578C7.79931 24.0156 7.75243 24.3906 7.95165 24.6836C8.19775 25.0234 8.61962 25.0586 8.93603 24.7891Z" fill="currentColor" fill-opacity="0.85"/>
<path d="M11.6782 25.7266C12.604 25.0586 13.7524 23.5234 14.1977 22.0234C14.2798 21.7656 14.2212 21.332 13.8462 21.2031C13.4477 21.0625 13.1079 21.2617 13.0024 21.5664C12.4048 23.1367 11.6665 24.0625 10.8813 24.6719C10.5884 24.9062 10.5063 25.293 10.7056 25.5977C10.8931 25.9258 11.3501 25.9727 11.6782 25.7266ZM14.8657 19.293C15.1938 17.7109 15.0649 15.6836 14.4907 13.9258C14.3384 13.4922 13.9985 13.3047 13.6352 13.4219C13.2954 13.5391 13.0845 13.8555 13.2134 14.2656C13.7524 15.9648 13.8462 17.6406 13.5767 19.1172C13.5063 19.4688 13.647 19.8086 14.0571 19.8672C14.4321 19.9375 14.7837 19.7148 14.8657 19.293Z" fill="currentColor" fill-opacity="0.85"/>
</svg>
