<svg viewBox="0 0 28 28" fill="none" xmlns="http://www.w3.org/2000/svg">
<path d="M10.875 22.3242C11.3203 22.3242 11.6133 22.043 11.6016 21.6328L11.2383 9.09375C11.2266 8.68359 10.9336 8.41406 10.5117 8.41406C10.0664 8.41406 9.77344 8.69531 9.78516 9.10547L10.1367 21.6328C10.1484 22.0547 10.4414 22.3242 10.875 22.3242ZM14.3438 22.3242C14.7891 22.3242 15.1055 22.043 15.1055 21.6328V9.10547C15.1055 8.69531 14.7891 8.41406 14.3438 8.41406C13.8984 8.41406 13.5938 8.69531 13.5938 9.10547V21.6328C13.5938 22.043 13.8984 22.3242 14.3438 22.3242ZM17.8242 22.3242C18.2461 22.3242 18.5391 22.0547 18.5508 21.6328L18.9023 9.10547C18.9141 8.69531 18.6211 8.41406 18.1758 8.41406C17.7539 8.41406 17.4609 8.68359 17.4492 9.10547L17.0977 21.6328C17.0859 22.043 17.3789 22.3242 17.8242 22.3242ZM9.19922 5.35547H11.0625V2.84766C11.0625 2.17969 11.5312 1.74609 12.2344 1.74609H16.4297C17.1328 1.74609 17.6016 2.17969 17.6016 2.84766V5.35547H19.4648V2.73047C19.4648 1.03125 18.3633 0 16.5586 0H12.1055C10.3008 0 9.19922 1.03125 9.19922 2.73047V5.35547ZM3.87891 6.29297H24.8203C25.3008 6.29297 25.6875 5.88281 25.6875 5.40234C25.6875 4.92188 25.3008 4.52344 24.8203 4.52344H3.87891C3.41016 4.52344 3 4.92188 3 5.40234C3 5.89453 3.41016 6.29297 3.87891 6.29297ZM8.97656 26.0977H19.7227C21.3984 26.0977 22.5234 25.0078 22.6055 23.332L23.4258 6.07031H21.5391L20.7539 23.1328C20.7305 23.8359 20.2266 24.3281 19.5352 24.3281H9.14062C8.47266 24.3281 7.96875 23.8242 7.93359 23.1328L7.10156 6.07031H5.26172L6.09375 23.3438C6.17578 25.0195 7.27734 26.0977 8.97656 26.0977Z" fill="currentColor" fill-opacity="0.85"/>
</svg>
